<svg width="312" height="71" viewBox="0 0 312 71" fill="none" xmlns="http://www.w3.org/2000/svg">
<path d="M128.928 14.9894H151.202C154.744 15.2179 157.815 17.6548 159.973 20.6755C162.689 24.4832 162.46 31.5273 158.259 34.9923C158.082 35.1446 157.917 35.2969 157.739 35.4619C158.691 36.1346 159.643 36.7184 160.506 37.4292C165.811 41.8334 165.481 52.7994 156.863 56.4801C154.084 57.6732 151.19 58.3586 148.194 58.384H128.928V14.9894ZM139.716 40.3611V49.3725H148.715C151.177 49.2329 152.662 47.5575 152.764 45.1968C152.865 42.7726 151.71 40.653 149.21 40.3611H139.703H139.716ZM139.652 23.6709V32.3523H147.103C149.387 32.1112 150.682 30.1693 150.695 27.9989C150.695 25.9301 149.527 23.6709 147.293 23.6709H139.652Z" fill="#E2B620"/>
<path d="M262.602 58.2444V44.4607C262.602 40.9957 255.418 40.9957 255.418 44.4607L255.444 58.2571H247.815V34.9543H254.936V36.3123C256.357 35.8173 257.728 35.1573 259.175 34.8908C262.145 34.3323 264.95 34.7766 267.298 36.8835C267.704 37.2388 267.907 37.1627 268.288 36.8708C272.007 34.0023 278.531 33.8627 282.11 36.9342C283.938 38.5081 284.928 40.5388 284.966 42.8742C285.067 47.9003 284.966 58.2444 284.966 58.2444H277.249V44.448C277.249 41.5796 270.268 41.5796 270.268 44.448V58.2317H262.615L262.602 58.2444Z" fill="#E2B620"/>
<path d="M85.3805 16.4744V26.1713C82.9817 25.6636 80.621 24.9401 78.2094 24.6863C73.3864 24.1659 68.9822 25.2067 65.7457 29.1539C61.1257 34.8019 62.3696 46.3518 72.8533 48.4841C77.1052 49.3472 81.2429 48.776 85.3171 46.8976C85.3678 47.2403 85.3044 57.0386 85.3044 57.0386C78.1967 59.209 70.4926 59.1836 63.8292 55.8456C55.6808 51.7714 51.2766 43.5595 52.2412 34.5227C53.1296 26.1332 57.6354 20.4217 65.2507 16.906C71.3049 14.1137 80.7352 14.3675 85.3679 16.4744H85.3805Z" fill="#E2B620"/>
<path d="M210.247 71L216.225 56.2898L203.609 26.0951L215.197 26.0697L222.152 43.9784L228.98 26.0697H240.378L221.606 70.9619L210.247 71Z" fill="#E2B620"/>
<path d="M123.673 42.2015C123.609 50.3372 117.631 57.1402 109.483 58.3332C103.683 59.1836 98.4535 58.0032 93.9605 54.094C86.5609 47.6591 87.0432 35.6269 94.7855 29.5728C101.487 24.3436 112.39 24.5467 118.647 30.4993C121.972 33.6596 123.686 37.5688 123.66 42.2015H123.673ZM113.062 42.2269C113.075 38.1273 110.143 35.1192 106.132 35.1066C102.223 35.1066 99.2024 38.2161 99.2024 42.2649C99.2024 46.263 102.16 49.2076 106.158 49.2202C110.143 49.2202 113.037 46.301 113.05 42.2396L113.062 42.2269Z" fill="#E2B620"/>
<path d="M311.886 47.0245C306.86 47.7987 301.884 48.5602 296.744 49.3344C297.797 50.7179 299.13 51.289 300.602 51.4921C303.712 51.9237 306.631 51.2383 309.385 49.7914C309.677 49.6391 309.982 49.4868 310.375 49.2837C310.401 49.5756 310.375 56.5944 310.375 56.5944C305.959 58.6378 300.882 58.9932 296.287 57.4574C291.819 55.9725 288.849 52.3298 288.532 47.3164C288.164 41.5034 291.439 36.3123 297.201 34.9542C301.402 33.9769 305.311 34.5481 308.649 37.5434C310.87 39.5488 312.393 43.9276 311.873 47.0118L311.886 47.0245ZM304.22 43.1914C303.534 41.3765 301.935 40.5134 299.841 40.7672C297.975 40.983 296.401 42.4934 296.147 44.4353C298.851 44.0164 301.529 43.6103 304.22 43.1914Z" fill="#E2B620"/>
<path d="M190.523 58.2317L190.434 56.2263C187.68 58.0032 184.722 58.6632 181.562 58.587C174.607 58.4347 169.39 53.764 168.857 46.8087C168.54 42.6076 168.603 26.0697 168.603 26.0697H179.151V45.1968C179.151 47.5195 181.816 49.0552 184.811 49.0552C187.21 49.0552 189.711 47.6718 189.711 45.1968C189.711 43.9784 189.711 26.0697 189.711 26.0697H200.258V58.2317H190.523Z" fill="#E2B620"/>
<path d="M238.944 58.2951C241.509 58.2951 243.589 56.2153 243.589 53.6498C243.589 51.0842 241.509 49.0045 238.944 49.0045C236.378 49.0045 234.298 51.0842 234.298 53.6498C234.298 56.2153 236.378 58.2951 238.944 58.2951Z" fill="#E2B620"/>
<path d="M38.2924 15.7891H6.04149C2.70487 15.7891 0 18.4939 0 21.8305V54.0813C0 57.418 2.70487 60.1228 6.04149 60.1228H38.2924C41.629 60.1228 44.3339 57.418 44.3339 54.0813V21.8305C44.3339 18.4939 41.629 15.7891 38.2924 15.7891Z" fill="white"/>
<path opacity="0.85" d="M27.6056 52.3045C18.8733 55.8202 8.56724 48.9664 8.73224 39.295H18.6322C18.6322 45.1841 22.2621 50.261 27.6056 52.3045Z" fill="#572A7D"/>
<path opacity="0.85" d="M36.6424 39.295C36.8201 49.106 26.2094 55.9725 17.4645 52.1775C22.6302 50.1214 26.1586 44.8415 26.1206 39.295H36.6424Z" fill="#572A7D"/>
<path opacity="0.85" d="M13.4411 35.9315C16.0346 35.9315 18.1372 33.829 18.1372 31.2354C18.1372 28.6418 16.0346 26.5393 13.4411 26.5393C10.8475 26.5393 8.74493 28.6418 8.74493 31.2354C8.74493 33.829 10.8475 35.9315 13.4411 35.9315Z" fill="#572A7D"/>
<path opacity="0.85" d="M31.5782 35.9315C34.1718 35.9315 36.2743 33.829 36.2743 31.2354C36.2743 28.6418 34.1718 26.5393 31.5782 26.5393C28.9846 26.5393 26.8821 28.6418 26.8821 31.2354C26.8821 33.829 28.9846 35.9315 31.5782 35.9315Z" fill="#572A7D"/>
<path d="M36.0078 14.4818H32.6444C32.6444 8.35145 27.6563 3.36343 21.526 3.36343C15.3957 3.36343 10.4076 8.35145 10.4076 14.4818H7.04419C7.05688 6.49839 13.5553 0 21.5387 0C29.5221 0 36.0205 6.49839 36.0205 14.4818H36.0078Z" fill="white"/>
</svg>
